<?xml version="1.0" encoding="UTF-8" standalone="no"?>
<svg
   version="1.1"
   viewBox="0 0 200"
   id="svg9"
   sodipodi:docname="yy-filled.svg"
   inkscape:version="1.1.1 (3bf5ae0d25, 2021-09-20)"
   xmlns:inkscape="http://www.inkscape.org/namespaces/inkscape"
   xmlns:sodipodi="http://sodipodi.sourceforge.net/DTD/sodipodi-0.dtd"
   xmlns="http://www.w3.org/2000/svg"
   xmlns:svg="http://www.w3.org/2000/svg">
  <defs
     id="defs13" />
  <sodipodi:namedview
     id="namedview11"
     pagecolor="#505050"
     bordercolor="#ffffff"
     borderopacity="1"
     inkscape:pageshadow="0"
     inkscape:pageopacity="0"
     inkscape:pagecheckerboard="1"
     showgrid="false"
     inkscape:zoom="0.51180124"
     inkscape:cx="492.37864"
     inkscape:cy="344.86044"
     inkscape:window-width="1920"
     inkscape:window-height="1009"
     inkscape:window-x="-8"
     inkscape:window-y="-8"
     inkscape:window-maximized="1"
     inkscape:current-layer="svg9" />
  <g
     id="YinYang"
     fill="#110C12"
     stroke="none"
     stroke-width="0"
     fill-rule="evenodd"
     style="fill:#110c12;fill-opacity:1">
    <title
       id="title2">Yin-Yang, by Adam Stanislav</title>
    <desc
       id="desc4">The entire graphic is drawn as a single path filled with black (or any other color you change the value of “fill” in line 4). The other half, usually shown in white is created here as a hole in the path. That means it is completely transparent, and has whatever color its background has. To achieve this, not just with SVG but with other vector formats, any black portion of the path is drawn counterclockwise, any “white” portion clockwise. Also, this graphic is taking advantage of the kappa constant described in my e-book Bézier Circles and other shapes, freely downloadable from https://www.smashwords.com/books/view/483578 .</desc>
    <!-- Note to self: Relative Bézier differences (“c”) are differences of a point from the STARTING point of the curve segment, not from the most recent point. -->
    <path
       d="M400 0C179.086 0 0 179.086 0 400 0 620.914 179.086 800 400 800 620.914 800 800 620.914 800 400 800 179.086 620.914 0 400 0zM400 10C184.609 10 10 184.609 10 400 10 615.391 184.609 790 400 790 292.304 790 205 682.304 205 600 205 492.3 292.304 400 400 400 507.7 400 600 292.304 600 200 600 92.304 507.7 10 400 10zM400 665c35.895 0 65-29.105 65-65 0-35.895-29.105-65-65-65-35.895 0-65 29.105-65 65 0 35.895 29.105 65 65 65zM400 132c-37.555 0-68 30.445-68 68 0 37.555 30.445 68 68 68 37.555 0 68-30.445 68-68 0-37.555-30.445-68-68-68z"
       id="path6"
       style="fill:#110c12;fill-opacity:1" />
  </g>
  <path
     style="fill:#f2f4f3;stroke-width:0.976942;fill-opacity:1.0"
     d="M 354.14138,791.25775 C 205.67219,771.05826 81.625671,668.35176 35.1368,527.13227 22.868894,489.86599 16.90901,454.85113 15.914135,414.19739 14.605547,360.72431 23.333434,311.1645 42.662947,262.30886 85.00951,155.27726 172.16575,72.464699 281.11507,35.740671 335.39113,17.445602 400.07525,10.803253 443.10144,19.106451 c 40.70438,7.855137 75.29032,25.563599 103.84927,53.17223 33.75836,32.635029 52.3702,71.183299 56.8454,117.736489 6.26603,65.18212 -34.41034,140.19624 -99.2057,182.95216 -10.5726,6.97644 -32.97106,18.0776 -44.52766,22.06885 -17.784,6.14199 -41.09034,9.84204 -62.44746,9.91399 -4.5672,0.0154 -12.86864,0.67677 -18.44763,1.46973 -57.81568,8.21756 -108.73662,42.41478 -140.36843,94.26789 -13.68212,22.42873 -23.31578,49.45285 -27.26387,76.47999 -2.03917,13.95946 -2.069,37.77384 -0.0617,49.34259 10.0219,57.76216 54.0391,116.60751 109.94025,146.97601 11.78441,6.40192 28.38981,12.98149 41.23695,16.33934 9.903,2.58835 10.53056,2.87656 6.14473,2.82197 -2.68659,-0.0334 -9.28095,-0.65891 -14.65413,-1.38994 z m 68.27897,-520.12906 c 23.79586,-6.08596 42.68708,-25.26998 49.09052,-49.85138 2.16038,-8.29323 2.14456,-23.6854 -0.0336,-32.72755 -5.76328,-23.92431 -25.0516,-43.39774 -49.43844,-49.91285 -8.55747,-2.28619 -25.61629,-2.28919 -34.19296,-0.006 -24.05302,6.40307 -42.94802,25.51776 -49.34514,49.91888 -2.24809,8.57511 -2.05372,24.50965 0.41471,33.99804 6.14096,23.60527 26.00231,43.2672 49.42558,48.92931 8.83544,2.1358 25.01283,1.97041 34.07933,-0.34841 z"
     id="path986"
     transform="translate(-5,-5)" />
  <path
     style="fill:#f2f4f3;stroke-width:0.976942;fill-opacity:1"
     d="m 394.02243,668.68656 c -19.48404,-3.50703 -37.7361,-17.16888 -46.2938,-34.65137 -5.13393,-10.48807 -6.77596,-17.54679 -6.77596,-29.12825 0,-11.44018 1.70458,-18.89131 6.63423,-28.99978 4.80572,-9.85435 17.28638,-22.54985 27.07026,-27.53624 12.28282,-6.25998 16.12726,-7.14867 30.77367,-7.11371 12.37698,0.0295 13.68147,0.21956 21.19486,3.08725 23.38492,8.92549 38.84687,28.13875 42.2322,52.47835 5.07148,36.46256 -23.59176,70.65037 -60.66286,72.35509 -5.01288,0.23052 -11.39055,0.01 -14.1726,-0.49134 z"
     id="path1025"
     transform="translate(-5,-5)" />
</svg>
